<svg xmlns="http://www.w3.org/2000/svg" width="76.166" height="68.959" viewBox="0 0 76.166 68.959"><path d="M71.914 46.042H4.252A4.265 4.265 0 0 0 0 50.294v3.454A4.265 4.265 0 0 0 4.252 58h.956v1.037c0 5.457 4.464 9.922 9.92 9.922h45.91c5.455 0 9.92-4.466 9.92-9.923V58h.956a4.265 4.265 0 0 0 4.252-4.252v-3.454a4.264 4.264 0 0 0-4.252-4.252zm-3.956 12.995c0 3.815-3.104 6.922-6.92 6.922h-45.91a6.93 6.93 0 0 1-6.92-6.923V58h59.75v1.037zm5.208-5.29c0 .68-.573 1.253-1.252 1.253H4.252C3.572 55 3 54.427 3 53.748v-3.454c0-.68.573-1.252 1.252-1.252h67.662c.68 0 1.252.573 1.252 1.252v3.454zM16.162 37.856l5.473 4 5.477-4 5.48 4 5.477-4 5.478 4 5.478-4 5.48 4 5.48-4 5.488 4 6.368-4.644-1.768-2.424-4.6 3.356-5.49-4-5.48 4-5.478-4-5.478 4-5.48-4-5.477 4-5.478-4-5.476 4-5.473-4.002-5.477 4.002-4.593-3.355-1.77 2.42 6.363 4.646zM70.888 31.094c.04-.61.055-2.616.037-3C70.242 12.476 55.805 0 38.083 0 20.363 0 5.923 12.476 5.24 28.094c-.016.384-.003 2.39.04 3h65.608zM38.083 3c16.03 0 29.15 11.154 29.842 25.094H8.24C8.934 14.154 22.05 3 38.084 3z"/><circle cx="38.083" cy="15.042" r="2"/><circle cx="30.083" cy="10.083" r="2"/><circle cx="46.083" cy="10.083" r="2"/></svg>