<svg xmlns="http://www.w3.org/2000/svg" width="74.695" height="72.346" viewBox="0 0 74.695 72.346"><path d="M29.503 65.345h16V41.407h-16v23.938zm13.063-2.938H32.44V44.345h10.126v18.062z"/><path d="M72.62 39.44l2.075-2.078-9.907-9.913V.47H50.974v13.16L37.35 0 0 37.363l2.077 2.078 7.832-7.83v37.798H5.97v2.938h63.876v-2.938h-5.06v-37.8l7.834 7.832zM53.913 3.408h7.938v21.104l-7.937-7.94V3.408zm7.937 66H12.846V28.67l24.502-24.5 24.502 24.5v40.737z"/><path d="M29.753 27.21a7.75 7.75 0 1 0 15.5 0 7.75 7.75 0 0 0-15.5 0zm7.75-4.97a4.97 4.97 0 0 1 0 9.942 4.97 4.97 0 0 1 0-9.94zM16.91 41.407h3v3.938h-3zM22.846 41.407h3v3.938h-3zM16.91 47.407h3v3.938h-3zM22.846 47.407h3v3.938h-3zM48.846 41.407h3v3.938h-3zM54.784 41.407h3v3.938h-3zM48.846 47.407h3v3.938h-3zM54.784 47.407h3v3.938h-3z"/></svg>