<svg xmlns="http://www.w3.org/2000/svg" xmlns:xlink="http://www.w3.org/1999/xlink">
<symbol xmlns="http://www.w3.org/2000/svg" viewBox="0 0 74.695 72.346" id="house">
  <g>
    <path d="M29.503,65.345h16V41.407h-16V65.345z M42.566,62.407H32.441V44.345h10.125V62.407z"/>
    <path d="M72.62,39.44l2.075-2.078l-9.907-9.913V0.47H50.974v13.161L37.349,0L0,37.363l2.077,2.078l7.832-7.832v37.799H5.971v2.938 h63.875v-2.938h-5.059v-37.8L72.62,39.44z M53.913,3.408h7.938v21.104l-7.938-7.94V3.408z M61.85,69.407H12.846V28.671 L37.348,4.169L61.85,28.671V69.407z"/>
    <path d="M29.753,27.21c0,4.28,3.47,7.75,7.75,7.75s7.75-3.47,7.75-7.75c0-4.279-3.47-7.75-7.75-7.75S29.753,22.93,29.753,27.21z M37.503,22.241c2.745,0,4.97,2.225,4.97,4.97s-2.225,4.971-4.97,4.971s-4.97-2.226-4.97-4.971S34.759,22.241,37.503,22.241z"/>
    <rect x="16.909" y="41.407" width="3" height="3.938"/>
    <rect x="22.846" y="41.407" width="3" height="3.938"/>
    <rect x="16.909" y="47.407" width="3" height="3.938"/>
    <rect x="22.846" y="47.407" width="3" height="3.938"/>
    <rect x="48.846" y="41.407" width="3" height="3.938"/>
    <rect x="54.784" y="41.407" width="3" height="3.938"/>
    <rect x="48.846" y="47.407" width="3" height="3.938"/>
    <rect x="54.784" y="47.407" width="3" height="3.938"/>
  </g>
</symbol>
<symbol xmlns="http://www.w3.org/2000/svg" viewBox="0 0 63 75.084" id="gift">
  <path d="M60.165 22.23H35.758c13.604-6.815 14.688-11.115 14.188-13.52-1.145-3.916-5.604-6.938-9.848-5.34-5.484 2.062-7.03 10.26-8.514 16.19-1.894-6-3.726-13.65-8.01-17.526C22.33.91 20.523-.203 17.896.03c-3.965.353-9.652 5.318-7.344 10.85 2.217 5.313 9.54 8.67 14.354 11.35H2.834A2.843 2.843 0 0 0 0 25.065V36.25a2.842 2.842 0 0 0 2.835 2.834h.27v36h56.958v-36h.104a2.842 2.842 0 0 0 2.835-2.834V25.065a2.846 2.846 0 0 0-2.837-2.835zm-18.4-16.357c2.07-.306 4.908 1.283 5.177 3.17.386 2.724-3.35 5.193-5.008 6.344-2.484 1.723-4.853 2.61-7.178 4.006.872-3.645 2.512-12.854 7.01-13.52zM19.233 15.72c-2.19-1.466-6.444-4.377-6.342-7.677.11-3.552 5.655-6.49 8.68-3.84 3.797 3.332 5.625 10.973 7.01 16.358-3.2-1.518-6.23-2.752-9.348-4.84zm5.882 56.427H6.042V39.084h19.072v33.063zm0-36.063H3V25.23h22.114v10.854zm10 36.062h-7.062V25.23h7.063v46.916zm22.01 0h-19.07V39.085h19.07v33.063zM60 36.085H38.053V25.23H60v10.854z"/>
</simbol>
<symbol xmlns="http://www.w3.org/2000/svg" viewBox="0 0 76.166 68.959" id="burger">
          <path d="M71.914,46.042H4.252C1.914,46.042,0,47.955,0,50.294v3.454C0,56.086,1.914,58,4.252,58h0.956v1.037 c0,5.457,4.464,9.922,9.921,9.922h45.908c5.456,0,9.921-4.465,9.921-9.922V58h0.956c2.339,0,4.252-1.914,4.252-4.252v-3.454 C76.166,47.955,74.253,46.042,71.914,46.042z M67.958,59.037c0,3.815-3.104,6.922-6.921,6.922H15.129 c-3.816,0-6.921-3.104-6.921-6.922V58h59.75V59.037z M73.166,53.748c0,0.679-0.573,1.252-1.252,1.252H4.252 C3.573,55,3,54.427,3,53.748v-3.454c0-0.679,0.573-1.252,1.252-1.252h67.662c0.679,0,1.252,0.573,1.252,1.252V53.748z"/>
          <polygon points="16.162,37.856 21.635,41.856 27.112,37.856 32.591,41.856 38.069,37.856 43.548,41.856 49.026,37.856 54.505,41.856 59.985,37.856 65.474,41.856 71.842,37.212 70.074,34.788 65.474,38.144 59.985,34.144 54.505,38.144 49.026,34.143 43.548,38.144 38.069,34.143 32.591,38.144 27.112,34.143 21.636,38.144 16.163,34.142 10.686,38.144 6.093,34.789 4.323,37.211 10.686,41.856 	"/>
          <path d="M70.888,31.094c0.041-0.61,0.055-2.616,0.037-3C70.242,12.476,55.804,0,38.083,0C20.363,0,5.924,12.476,5.241,28.094 c-0.017,0.384-0.004,2.389,0.039,3H70.888z M38.083,3c16.031,0,29.15,11.154,29.842,25.094H8.241C8.933,14.154,22.051,3,38.083,3z"/>
          <circle cx="38.083" cy="15.042" r="2"/>
          <circle cx="30.083" cy="10.083" r="2"/>
          <circle cx="46.083" cy="10.083" r="2"/>
</symbol>
<symbol xmlns="http://www.w3.org/2000/svg" viewBox="0 0 477.175 477.175" id="back"><path d="M145.188 238.575l215.5-215.5c5.3-5.3 5.3-13.8 0-19.1s-13.8-5.3-19.1 0l-225.1 225.1c-5.3 5.3-5.3 13.8 0 19.1l225.1 225c2.6 2.6 6.1 4 9.5 4s6.9-1.3 9.5-4c5.3-5.3 5.3-13.8 0-19.1l-215.4-215.5z"/></symbol>
<symbol xmlns="http://www.w3.org/2000/svg" viewBox="0 0 555.9 555.9" id="cart"><path d="M413.1 212.925l-112.2-168.3c-5.101-5.1-12.75-10.2-20.4-10.2-7.65 0-15.3 2.55-20.4 10.2l-112.2 168.3H25.5c-15.3 0-25.5 10.2-25.5 25.5v7.65l63.75 237.15c5.1 20.4 25.5 38.25 48.45 38.25h331.5c22.95 0 43.35-15.3 48.45-38.25l63.75-237.15v-7.65c0-15.3-10.2-25.5-25.5-25.5H413.1zm-209.1 0l76.5-112.2 76.5 112.2H204zm76.5 204c-28.05 0-51-22.95-51-51s22.95-51 51-51 51 22.95 51 51-22.95 51-51 51z"/></symbol>
<symbol xmlns="http://www.w3.org/2000/svg" viewBox="0 0 510 510" id="check"><path d="M150.45 206.55l-35.7 35.7L229.5 357l255-255-35.7-35.7-219.3 219.3-79.05-79.05zM459 255c0 112.2-91.8 204-204 204S51 367.2 51 255 142.8 51 255 51c20.4 0 38.25 2.55 56.1 7.65l40.801-40.8C321.3 7.65 288.15 0 255 0 114.75 0 0 114.75 0 255s114.75 255 255 255 255-114.75 255-255h-51z"/></symbol>
<symbol xmlns="http://www.w3.org/2000/svg" viewBox="0 0 26 26" id="check-single"><path d="M.3 14c-.2-.2-.3-.5-.3-.7s.1-.5.3-.7l1.4-1.4c.4-.4 1-.4 1.4 0l.1.1 5.5 5.9c.2.2.5.2.7 0L22.8 3.3h.1c.4-.4 1-.4 1.4 0l1.4 1.4c.4.4.4 1 0 1.4l-16 16.6c-.2.2-.4.3-.7.3-.3 0-.5-.1-.7-.3L.5 14.3.3 14z"/></symbol>
<symbol xmlns="http://www.w3.org/2000/svg" viewBox="0 0 24 24" id="menu"><path d="M23.244 17.009H.75c-.413 0-.75.36-.75.801v3.421c0 .423.337.769.75.769h22.494c.414 0 .75-.346.75-.77v-3.42c0-.441-.336-.801-.75-.801zm0-8H.75c-.413 0-.75.36-.75.801v3.421A.76.76 0 0 0 .75 14h22.494a.76.76 0 0 0 .75-.769V9.81c0-.441-.336-.801-.75-.801zm0-8H.75c-.413 0-.75.36-.75.801v3.42c0 .423.337.769.75.769h22.494a.76.76 0 0 0 .75-.769V1.81c0-.441-.336-.801-.75-.801z"/></symbol>
<symbol xmlns="http://www.w3.org/2000/svg" viewBox="0 0 250.313 250.313" id="search"><path d="M244.186 214.604l-54.379-54.378c-.289-.289-.628-.491-.93-.76 10.7-16.231 16.945-35.66 16.945-56.554C205.822 46.075 159.747 0 102.911 0S0 46.075 0 102.911c0 56.835 46.074 102.911 102.91 102.911 20.895 0 40.323-6.245 56.554-16.945.269.301.47.64.759.929l54.38 54.38c8.169 8.168 21.413 8.168 29.583 0 8.168-8.169 8.168-21.413 0-29.582zm-141.275-44.458c-37.134 0-67.236-30.102-67.236-67.235 0-37.134 30.103-67.236 67.236-67.236 37.132 0 67.235 30.103 67.235 67.236s-30.103 67.235-67.235 67.235z" fill-rule="evenodd" clip-rule="evenodd"/></symbol>
</svg>
